<?xml version="1.0" encoding="UTF-8"?>
<svg id="Layer_2" xmlns="http://www.w3.org/2000/svg" version="1.1" viewBox="0 0 792 186">
  <!-- Generator: Adobe Illustrator 29.8.2, SVG Export Plug-In . SVG Version: 2.1.1 Build 3)  -->
  <defs>
    <style>
      .st0 {
        fill: #febe2d;
      }

      .st1 {
        fill: #44a3db;
      }

      .st2 {
        fill: #5baf6a;
      }

      .st3 {
        fill: #fff;
      }
    </style>
  </defs>
  <g>
    <path class="st0" d="M128.429993,67.709991c4.470001-1.309998,8.610001-3.440002,12.5-6.109985,7.710007-5.299988,13.899994-12.190002,20.350006-18.820007,1.809998-1.860001,3.660004-3.699997,5.589996-5.440002-5.550003-.550003-11.119995-.770004-16.690002-.649994-3.360001,4.029999-6.960007,7.809998-10.990005,11.170013-5.949997,4.970001-12.709999,8.23999-20.360001,9.670013-5.879997,1.100006-11.770004,2.170013-17.610001,3.429993v14.26001c3.029999-1.23999,6.139999-2.290009,9.370003-3.049988,5.970001-1.399994,11.970001-2.730011,17.840004-4.459991v-.000061Z"/>
    <path class="st0" d="M119.309998,50.769989c4.699997-1.190002,9.080002-3.220001,13.119995-6.070007,3.160004-2.229996,6-4.770004,8.619995-7.509995-9.580002.850006-19.07,2.710007-28.260002,5.619995-3.919998,1.240005-7.709999,2.779999-11.57,4.160004v6.599991c1.809998-.23999,3.629997-.440002,5.43-.709991,4.230003-.649994,8.529999-1.040009,12.659996-2.089996h.000015Z"/>
  </g>
  <g>
    <path class="st2" d="M109.620003,92.290009c4.379997-2.769989,9.159996-4.410004,14.090004-5.809998,5.160004-1.470001,10.319992-2.970001,15.330002-4.859985,4.160004-1.570007,8.320007-3.230011,12.029999-5.829987,3.809998-2.679993,7.770004-5.130005,11.570007-7.820007,2.759995-1.950012,5.350006-4.130005,8.059998-6.149994,1.279999-.950012,2.679993-1.73999,4-2.640015,5.199997-3.540009,10.869995-5.970001,17.089996-6.890015,2.380005-.350006,4.889999-.420013,7.259995-.079987,2.100006.309998,4.169998.720001,6.220001,1.26001v-6.490005c-8.050003-3.119995-16.240005-5.880005-24.729996-7.589996h-.029999c-.350006.149994-.699997.300003-1.050003.460007-4.369995,2.050003-8.210007,4.869995-11.800003,8.089996-5.600006,5.029999-11.199997,10.079987-16.940002,14.940002-3.949997,3.350006-8.330002,6.079987-13.020004,8.359985-4.419998,2.140015-9.130005,3.23999-13.790001,4.570007-4.970001,1.429993-10.029999,2.619995-14.870003,4.399994-2.709999.98999-5.32,2.25-7.849998,3.690002v15.309998c2.470001-2.679993,5.300003-4.940002,8.419998-6.910004l.01001-.01001Z"/>
    <path class="st2" d="M128.380005,103.100006c7.699997-2.779999,15.610001-4.809998,23.5-6.959991,5.350006-1.459991,10.619995-3.269989,15.660004-5.670013,2.589996-1.23999,5.289993-2.25,7.929993-3.410004,3.919998-1.720001,7.860001-3.350006,12-4.519989,6.089996-1.720001,12.029999-1.769989,17.820007-.130005v-18.25c-.710007-.170013-1.410004-.339996-2.119995-.470001-7.570007-1.399994-14.759995-.23999-21.600006,3.209991-1.259995.630005-2.559998,1.179993-3.759995,1.899994-4.479996,2.690002-8.899994,5.48999-13.399994,8.160004-5.050003,3-10.009995,6.179993-15.550003,8.26001-3.699997,1.390015-7.440002,2.700012-11.199997,3.940002-5.149994,1.709991-10.400002,3.160004-15.489998,5.040009-4.370003,1.619995-8.449997,3.829987-12.010002,7-3.07,2.730011-5.68,5.799988-7.940002,9.179993.610001,3.040009,1.489998,6,2.790001,8.910004.589996,1.329987,1.269997,2.570007,1.989998,3.769989,1.800003-3.119995,3.720001-6.209991,5.959999-9.01001,4.07-5.070007,9.25-8.73999,15.420006-10.959991l-.000015.01001Z"/>
  </g>
  <g>
    <path class="st1" d="M151.990005,142.410004c-5.279999-.059998-9.949997,1.600006-14.009995,4.73999.690002.399994,1.369995.790009,2.050003,1.200012,4.570007,2.730011,8.949997,5.709991,13.130005,9,1.380005-.619995,2.580002-1.929993,3.839996-2.839996,4.850006-3.5,10.029999-6.440002,15.149994-9.320007-2.080002-.470001-4.160004-.899994-6.270004-1.290009-4.610001-.850006-9.199997-1.450012-13.880005-1.5l-.009995.01001Z"/>
    <path class="st1" d="M162.949997,123.51001c-5.300003-.350006-10.630005-.570007-15.889999.290009-4.850006.799988-9.710007,1.799988-13.800003,4.829987-3.619995,2.679993-6.589996,6.01001-9.169998,9.679993-.139999.200012-.260002.399994-.389999.600006,2.68,1.679993,5.449997,3.26001,8.240005,4.820007.089996-.100006.160004-.209991.25-.309998,4.070007-4.609985,9.039993-7.570007,15.330002-8.200012,6.240005-.619995,12.389999-.049988,18.529999.929993,3.720001.589996,7.470001,1.160004,11.119995,2.070007,1.600006.399994,3.199997.809998,4.789993,1.23999,5.330002-3.329987,10.240005-7,14.160004-11.670013-5.839996-1.940002-11.880005-2.829987-18.050003-3.220001-5.039993-.320007-10.080002-.730011-15.119995-1.059998v.000031Z"/>
    <path class="st1" d="M205.300003,96.410004c-1.009995-.380005-2.039993-.73999-3.089996-1.049988-4.070007-1.179993-8.240005-1.290009-12.360001-.609985-3.649994.600006-7.240005,1.579987-10.809998,2.549988-4.75,1.279999-9.410004,2.890015-14.190002,4.040009-5.149994,1.23999-10.429993,1.980011-15.589996,3.200012-5.649994,1.339996-11.309998,2.730011-16.820007,4.559998-4.039993,1.339996-7.760002,3.519989-10.970001,6.470001-4.209999,3.869995-7.489998,8.410004-10.129997,13.429993,2.160004,2.390015,4.580002,4.48999,7.159996,6.410004,2.550003-4.190002,5.540001-8.079987,9.279999-11.320007,4.179993-3.619995,9.139999-5.73999,14.559998-6.859985,5.149994-1.059998,10.360001-1.51001,15.600006-1.809998,7.339996-.429993,14.669998-.980011,22.009995-1.329987,3.570007-.170013,7.169998-.230011,10.720001.070007,4.080002.350006,8,1.380005,11.770004,2.869995.970001-2.559998,1.720001-5.350006,2.210007-8.440002.289993-1.880005.360001-3.779999.630005-5.660004v-6.51001l.019989-.01004Z"/>
  </g>
  <g>
    <path class="st3" d="M267.829987,51.309998c2.589996-1.660004,5.679993-2.48999,9.279999-2.48999,3.940002,0,7.089996.899994,9.450012,2.700012,2.359985,1.799988,3.880005,4.299988,4.549988,7.51001h12.149994c-1.130005-6.350006-3.950012-11.299988-8.480011-14.850006-4.529999-3.539993-10.359985-5.309998-17.5-5.309998-5.910004,0-11.01001,1.289993-15.309998,3.880005-4.299988,2.589996-7.610001,6.190002-9.910004,10.799988-2.309998,4.609985-3.460007,9.929993-3.460007,15.940002s1.149994,11.320007,3.460007,15.899994c2.309998,4.579987,5.609985,8.160004,9.910004,10.709991,4.299988,2.559998,9.399994,3.839996,15.309998,3.839996,7.140015,0,12.980011-1.730011,17.5-5.190002,4.529999-3.459991,7.320007-8.309998,8.390015-14.549988h-12.059998c-.730011,3.209991-2.26001,5.649994-4.600006,7.339996-2.329987,1.690002-5.470001,2.529999-9.410004,2.529999-3.600006,0-6.690002-.829987-9.279999-2.48999s-4.579987-4.019989-5.98999-7.089996-2.109985-6.73999-2.109985-11.01001.700012-7.959991,2.109985-11.049988c1.410004-3.089996,3.399994-5.470001,5.98999-7.130005l.01001.009979ZM310.76001,98.929993h10.970001v-60.740005h-10.970001v60.740005ZM361.549988,58.779999c-3.149994-1.799988-6.799988-2.700012-10.970001-2.700012s-8.130005.940002-11.390015,2.829987c-3.26001,1.890015-5.809998,4.51001-7.630005,7.890015-1.829987,3.369995-2.73999,7.230011-2.73999,11.559998s.929993,8.029999,2.790009,11.26001c1.859985,3.230011,4.410004,5.769989,7.670013,7.589996,3.26001,1.829987,7.029999,2.73999,11.309998,2.73999,3.369995,0,6.410004-.619995,9.109985-1.859985,2.700012-1.23999,4.959991-2.940002,6.790009-5.100006,1.829987-2.160004,3.130005-4.570007,3.920013-7.209991h-11.140015c-.790009,1.579987-1.910004,2.839996-3.369995,3.799988s-3.26001,1.429993-5.399994,1.429993-3.940002-.459991-5.570007-1.390015c-1.630005-.929993-2.929993-2.26001-3.880005-4.01001-.790009-1.440002-1.23999-3.109985-1.369995-4.980011h31.73999c.109985-.730011.170013-1.429993.170013-2.109985v-1.859985c0-3.940002-.880005-7.450012-2.660004-10.540009-1.769989-3.089996-4.230011-5.540009-7.380005-7.339996v.000031ZM339.899994,73.880005c.23999-1.350006.619995-2.559998,1.190002-3.579987.980011-1.769989,2.320007-3.109985,4.01001-4.01001,1.690002-.899994,3.540009-1.350006,5.570007-1.350006,2.700012,0,4.980011.820007,6.829987,2.450012,1.859985,1.630005,2.869995,3.799988,3.040009,6.5h-20.639984l-.000031-.01001ZM417.649994,89.309998c-.559998-.279999-.970001-.929993-1.230011-1.940002-.25-1.01001-.380005-2.589996-.380005-4.720001v-9.450012c0-5.450012-1.76001-9.670013-5.269989-12.649994-3.519989-2.980011-8.390015-4.470001-14.630005-4.470001-3.149994,0-6.029999.540009-8.649994,1.600006-2.609985,1.070007-4.76001,2.630005-6.450012,4.679993s-2.700012,4.570007-3.040009,7.549988h10.380005c.390015-1.910004,1.320007-3.25,2.779999-4.01001s3.119995-1.140015,4.980011-1.140015c2.640015,0,4.790009.679993,6.450012,2.019989s2.48999,3.48999,2.48999,6.410004v2.019989c-1.130005-.390015-2.559998-.76001-4.299988-1.100006s-3.820007-.51001-6.23999-.51001c-5.119995,0-9.25,1.190002-12.399994,3.579987-3.149994,2.390015-4.720001,5.779999-4.720001,10.170013,0,2.309998.589996,4.420013,1.769989,6.329987,1.179993,1.910004,2.910004,3.429993,5.190002,4.549988s4.98999,1.690002,8.140015,1.690002,5.790009-.649994,8.100006-1.940002c2.299988-1.290009,4.160004-2.920013,5.570007-4.890015.899994,2.309998,2.329987,3.850006,4.299988,4.640015s4.440002,1.179993,7.420013,1.179993h2.359985v-9.200012h-.339996c-.959991,0-1.720001-.140015-2.279999-.420013l-.000031.020142ZM402.709991,86.98999c-.839996,1.429993-1.899994,2.559998-3.160004,3.369995-1.26001.820007-2.799988,1.220001-4.600006,1.220001-2.029999,0-3.609985-.480011-4.769989-1.429993-1.149994-.959991-1.730011-2.190002-1.730011-3.709991,0-1.73999.660004-3.109985,1.980011-4.089996s3.079987-1.480011,5.269989-1.480011c1.570007,0,3.130005.160004,4.679993.459991,1.549988.309998,2.910004.630005,4.089996.970001-.339996,1.690002-.929993,3.25-1.769989,4.679993l.01001.01001ZM442.609985,58.480011c-1.690002,1.209991-3.070007,2.880005-4.130005,5.019989v-6.410004h-10.970001v41.839996h10.970001v-18.140015c0-3.149994.309998-5.790009.929993-7.929993.619995-2.140015,1.589996-3.73999,2.910004-4.809998s2.98999-1.600006,5.019989-1.600006h6.410004v-9.790009h-5.309998c-2.190002,0-4.130005.609985-5.820007,1.809998l-.009979.01004ZM526.650024,39.880005l-10.559998,46.850006-12.049988-46.850006h-12.059998l-12.450012,46.880005-10.579987-46.880005h-11.640015l15.609985,59.049988h12.899994l11.970001-43.51001,11.649994,43.51001h13.070007l15.940002-59.050003h-11.809998l.01001.000015ZM578.359985,89.309998c-.559998-.279999-.969971-.929993-1.22998-1.940002-.25-1.01001-.380005-2.589996-.380005-4.720001v-9.450012c0-5.450012-1.76001-9.670013-5.27002-12.649994-3.52002-2.980011-8.390015-4.470001-14.630005-4.470001-3.150024,0-6.030029.540009-8.650024,1.600006-2.609985,1.070007-4.76001,2.630005-6.450012,4.679993s-2.700012,4.570007-3.039978,7.549988h10.380005c.390015-1.910004,1.320007-3.25,2.780029-4.01001s3.119995-1.140015,4.97998-1.140015c2.640015,0,4.789978.679993,6.450012,2.019989,1.659973,1.350006,2.48999,3.48999,2.48999,6.410004v2.019989c-1.130005-.390015-2.559998-.76001-4.299988-1.100006s-3.820007-.51001-6.23999-.51001c-5.119995,0-9.25,1.190002-12.400024,3.579987-3.150024,2.390015-4.719971,5.779999-4.719971,10.170013,0,2.309998.590027,4.420013,1.77002,6.329987,1.179993,1.910004,2.909973,3.429993,5.190002,4.549988s4.98999,1.690002,8.140015,1.690002,5.789978-.649994,8.099976-1.940002c2.299988-1.290009,4.159973-2.920013,5.570007-4.890015.900024,2.309998,2.330017,3.850006,4.299988,4.640015s4.440002,1.179993,7.419983,1.179993h2.359985v-9.200012h-.340027c-.960022,0-1.719971-.140015-2.280029-.420013l.000061.020142ZM563.429993,86.98999c-.840027,1.429993-1.900024,2.559998-3.159973,3.369995s-2.799988,1.220001-4.599976,1.220001c-2.030029,0-3.609985-.480011-4.77002-1.429993-1.150024-.959991-1.72998-2.190002-1.72998-3.709991,0-1.73999.659973-3.109985,1.97998-4.089996s3.080017-1.480011,5.27002-1.480011c1.570007,0,3.130005.160004,4.679993.459991,1.549988.309998,2.909973.630005,4.090027.970001-.340027,1.690002-.929993,3.25-1.77002,4.679993l.009949.01001ZM601.049988,45.869995h-10.969971v11.220001h-7.169983v9.190002h7.169983v19.73999c0,3.540009.47998,6.26001,1.429993,8.140015.960022,1.880005,2.409973,3.149994,4.349976,3.799988s4.320007.970001,7.130005.970001h8.349976v-9.359985h-5.059998c-1.349976,0-2.419983-.109985-3.210022-.339996-.789978-.220001-1.320007-.690002-1.599976-1.390015-.280029-.700012-.419983-1.76001-.419983-3.160004v-18.390015h10.539978v-9.190002h-10.539978v-11.22998ZM647.109985,58.779999c-3.150024-1.799988-6.799988-2.700012-10.969971-2.700012s-8.130005.940002-11.390015,2.829987c-3.26001,1.890015-5.809998,4.51001-7.630005,7.890015-1.830017,3.369995-2.73999,7.230011-2.73999,11.559998s.929993,8.029999,2.789978,11.26001,4.409973,5.769989,7.669983,7.589996c3.26001,1.829987,7.030029,2.73999,11.309998,2.73999,3.369995,0,6.409973-.619995,9.109985-1.859985s4.960022-2.940002,6.789978-5.100006c1.830017-2.160004,3.130005-4.570007,3.919983-7.209991h-11.140015c-.789978,1.579987-1.909973,2.839996-3.369995,3.799988s-3.26001,1.429993-5.400024,1.429993-3.940002-.459991-5.570007-1.390015c-1.630005-.929993-2.929993-2.26001-3.880005-4.01001-.789978-1.440002-1.23999-3.109985-1.369995-4.980011h31.73999c.109985-.730011.169983-1.429993.169983-2.109985v-1.859985c0-3.940002-.880005-7.450012-2.659973-10.540009-1.77002-3.089996-4.22998-5.540009-7.380005-7.339996l.000122.000031ZM625.460022,73.880005c.23999-1.350006.619995-2.559998,1.190002-3.579987.97998-1.769989,2.320007-3.109985,4.01001-4.01001,1.690002-.899994,3.539978-1.350006,5.570007-1.350006,2.700012,0,4.97998.820007,6.830017,2.450012,1.859985,1.630005,2.869995,3.799988,3.039978,6.5h-20.640015v-.01001ZM685.48999,56.670013c-2.190002,0-4.130005.609985-5.820007,1.809998-1.690002,1.209991-3.070007,2.880005-4.130005,5.019989v-6.410004h-10.969971v41.839996h10.969971v-18.140015c0-3.149994.309998-5.790009.929993-7.929993.619995-2.140015,1.590027-3.73999,2.909973-4.809998,1.320007-1.070007,2.98999-1.600006,5.02002-1.600006h6.409973v-9.790009h-5.309998l-.009949.01004Z"/>
    <path class="st3" d="M307.459991,134.170013c1.149994-.73999,2.529999-1.109985,4.130005-1.109985,1.75,0,3.149994.399994,4.200012,1.200012,1.049988.799988,1.720001,1.910004,2.029999,3.339996h5.399994c-.5-2.829987-1.76001-5.029999-3.769989-6.600006-2.019989-1.579987-4.609985-2.359985-7.790009-2.359985-2.630005,0-4.899994.570007-6.809998,1.720001s-3.380005,2.75-4.410004,4.799988-1.540009,4.420013-1.540009,7.089996.51001,5.029999,1.540009,7.070007c1.019989,2.040009,2.48999,3.630005,4.410004,4.769989,1.910004,1.140015,4.179993,1.709991,6.809998,1.709991,3.179993,0,5.769989-.769989,7.790009-2.309998,2.01001-1.540009,3.26001-3.700012,3.730011-6.470001h-5.369995c-.320007,1.429993-1.01001,2.51001-2.040009,3.26001-1.040009.75-2.429993,1.130005-4.190002,1.130005-1.600006,0-2.980011-.369995-4.130005-1.109985s-2.040009-1.790009-2.660004-3.149994c-.630005-1.359985-.940002-3-.940002-4.899994s.309998-3.540009.940002-4.920013,1.519989-2.429993,2.660004-3.170013l.009979.009979ZM352.920013,130.359985c-1.959991-1.149994-4.26001-1.720001-6.880005-1.720001s-4.890015.570007-6.869995,1.720001c-1.980011,1.149994-3.519989,2.75-4.630005,4.779999-1.119995,2.040009-1.670013,4.399994-1.670013,7.070007s.549988,5.070007,1.670013,7.089996c1.109985,2.029999,2.660004,3.609985,4.630005,4.769989,1.980011,1.149994,4.269989,1.730011,6.869995,1.730011s4.920013-.570007,6.880005-1.730011c1.970001-1.149994,3.5-2.73999,4.619995-4.769989,1.109985-2.029999,1.670013-4.390015,1.670013-7.089996s-.559998-5.029999-1.670013-7.070007c-1.119995-2.040009-2.649994-3.630005-4.619995-4.779999ZM353.23999,147.140015c-.679993,1.380005-1.630005,2.429993-2.850006,3.170013-1.230011.73999-2.660004,1.109985-4.320007,1.109985s-3.100006-.369995-4.329987-1.109985c-1.23999-.73999-2.190002-1.799988-2.869995-3.170013-.679993-1.380005-1.019989-3.01001-1.019989-4.920013s.339996-3.540009,1.019989-4.920013,1.630005-2.429993,2.869995-3.170013c1.23999-.73999,2.679993-1.109985,4.329987-1.109985s3.089996.369995,4.320007,1.109985,2.179993,1.799988,2.850006,3.170013c.679993,1.380005,1.01001,3.01001,1.01001,4.920013s-.339996,3.540009-1.01001,4.920013ZM386.899994,147.480011l-12.269989-18.389984h-4.880005v26.269989h4.880005v-18.350006l12.269989,18.350006h4.880005v-26.269989h-4.880005v18.390015-.000031ZM415.459991,140.309998l-4.130005-.75c-1.25-.230011-2.160004-.630005-2.720001-1.220001s-.850006-1.26001-.850006-2.01001c0-.880005.25-1.570007.75-2.079987s1.130005-.880005,1.880005-1.109985c.75-.230011,1.480011-.339996,2.179993-.339996.75,0,1.480011.130005,2.200012.380005.709991.25,1.329987.679993,1.839996,1.290009.51001.609985.839996,1.480011.98999,2.609985h4.579987c-.170013-1.950012-.700012-3.549988-1.579987-4.779999-.869995-1.23999-2.01001-2.160004-3.410004-2.76001s-2.980011-.899994-4.730011-.899994-3.209991.309998-4.609985.940002-2.51001,1.51001-3.339996,2.660004c-.820007,1.149994-1.23999,2.549988-1.23999,4.200012,0,1.799988.609985,3.359985,1.820007,4.670013,1.209991,1.309998,2.899994,2.170013,5.049988,2.570007l4.470001.829987c1.399994.25,2.309998.679993,2.73999,1.290009.429993.609985.640015,1.309998.640015,2.079987s-.220001,1.410004-.660004,1.970001-1.040009.98999-1.799988,1.290009c-.76001.299988-1.630005.450012-2.609985.450012-.869995,0-1.76001-.140015-2.640015-.429993-.890015-.290009-1.649994-.790009-2.290009-1.519989-.640015-.730011-1.059998-1.730011-1.26001-3h-4.5c.119995,1.630005.519989,3.019989,1.179993,4.179993s1.48999,2.119995,2.5,2.850006c1,.73999,2.100006,1.279999,3.299988,1.609985s2.410004.51001,3.640015.51001,2.380005-.179993,3.529999-.519989c1.149994-.350006,2.190002-.869995,3.109985-1.559998.929993-.690002,1.670013-1.529999,2.230011-2.51001.559998-.98999.850006-2.149994.850006-3.470001,0-2.230011-.630005-3.920013-1.899994-5.079987-1.26001-1.160004-3-1.940002-5.200012-2.350006l-.009979.009918ZM433.399994,155.359985h17.149994v-3.940002h-12.269989v-7.470001h11.149994v-3.829987h-11.149994v-7.089996h12.269989v-3.940002h-17.149994v26.269989ZM480.76001,145.730011c-.529999-1.040009-1.290009-1.880005-2.290009-2.529999.950012-.730011,1.690002-1.600006,2.230011-2.630005.540009-1.019989.809998-2.149994.809998-3.380005,0-1.549988-.339996-2.929993-1.01001-4.149994-.679993-1.209991-1.700012-2.179993-3.079987-2.890015-1.380005-.709991-3.130005-1.070007-5.25-1.070007h-11v26.269989h4.880005v-10.089996h6.119995c1.130005,0,2.01001.140015,2.640015.429993.640015.290009,1.109985.73999,1.410004,1.350006.299988.609985.470001,1.399994.529999,2.350006l.410004,5.970001h4.769989l-.299988-6.040009c-.049988-1.350006-.339996-2.549988-.859985-3.579987l-.01004-.009979ZM475.429993,140.200012c-.75.75-1.940002,1.130005-3.570007,1.130005h-5.820007v-8.26001h5.820007c1.649994,0,2.850006.359985,3.579987,1.089996.73999.730011,1.109985,1.73999,1.109985,3.040009s-.369995,2.25-1.130005,3h.01004ZM501.98999,150.369995l-7.359985-21.279999h-5.209991l9.609985,26.269989h5.929993l9.610016-26.269989h-5.140015l-7.429993,21.279999h-.01001ZM528.330017,129.089996l-9.570007,26.269989h5.099976l2.109985-6.040009h10.22998l2.109985,6.040009h5.140015l-9.609985-26.269989h-5.52002.010071ZM527.309998,145.48999l3.780029-10.839996,3.780029,10.839996h-7.560059ZM570.369995,147.480011l-12.27002-18.389984h-4.880005v26.269989h4.880005v-18.350006l12.27002,18.350006h4.880005v-26.269989h-4.880005v18.390015-.000031ZM594.340027,134.170013c1.150024-.73999,2.530029-1.109985,4.130005-1.109985,1.75,0,3.150024.399994,4.200012,1.200012,1.049988.799988,1.719971,1.910004,2.030029,3.339996h5.400024c-.5-2.829987-1.76001-5.029999-3.77002-6.600006-2.02002-1.579987-4.609985-2.359985-7.789978-2.359985-2.630005,0-4.900024.570007-6.809998,1.720001s-3.380005,2.75-4.409973,4.799988c-1.030029,2.049988-1.539978,4.420013-1.539978,7.089996s.51001,5.029999,1.539978,7.070007c1.02002,2.040009,2.48999,3.630005,4.409973,4.769989,1.909973,1.140015,4.179993,1.709991,6.809998,1.709991,3.179993,0,5.77002-.769989,7.789978-2.309998,2.01001-1.540009,3.26001-3.700012,3.72998-6.470001h-5.369995c-.320007,1.429993-1.01001,2.51001-2.039978,3.26001-1.039978.75-2.429993,1.130005-4.190002,1.130005-1.599976,0-2.97998-.369995-4.130005-1.109985s-2.039978-1.790009-2.659973-3.149994c-.630005-1.359985-.940002-3-.940002-4.899994s.309998-3.540009.940002-4.920013,1.52002-2.429993,2.659973-3.170013l.009949.009979ZM635.02002,129.089996l-5.799988,12-5.830017-12h-5.549988l8.890015,16.959991v9.309998h4.880005v-9.309998l8.890015-16.959991h-5.480042Z"/>
  </g>
</svg>